<svg xmlns="http://www.w3.org/2000/svg" viewBox="0 0 52.83 52.83"><defs><style>.cls-1{fill:#fff;stroke:#000;stroke-miterlimit:10;stroke-width:2.83px;}</style></defs><g id="Layer_2" data-name="Layer 2"><g id="Position"><circle class="cls-1" cx="26.42" cy="26.42" r="25"/><path d="M24.89,42a.5.5,0,0,1,.06.41.42.42,0,0,1-.26.3L22,43.91a.64.64,0,0,1-.87-.23l-2-3h-.72a4.71,4.71,0,0,1-1.94-.4,5,5,0,0,1-2.66-2.66,4.71,4.71,0,0,1-.4-1.94V17.32a4.75,4.75,0,0,1,.4-1.94,5,5,0,0,1,1.07-1.59,5.17,5.17,0,0,1,1.59-1.07,4.88,4.88,0,0,1,1.94-.4h1.51a4.84,4.84,0,0,1,1.94.4,5.17,5.17,0,0,1,1.59,1.07,5,5,0,0,1,1.07,1.59,4.75,4.75,0,0,1,.4,1.94V35.66a5,5,0,0,1-.44,2.08,4.58,4.58,0,0,1-1.23,1.65ZM18,35.46a.93.93,0,0,0,.28.67.91.91,0,0,0,.68.28h.31a.91.91,0,0,0,.68-.28.93.93,0,0,0,.28-.67V17.52a.93.93,0,0,0-.28-.67.91.91,0,0,0-.68-.28h-.31a.91.91,0,0,0-.68.28.93.93,0,0,0-.28.67Z"/><path d="M38.58,26.53a3.53,3.53,0,0,1,.83,1.31,4.68,4.68,0,0,1,.28,1.67v5.87a4.92,4.92,0,0,1-.39,1.95,5.28,5.28,0,0,1-1.08,1.58A5.07,5.07,0,0,1,36.64,40a4.76,4.76,0,0,1-2,.4H28.74a.49.49,0,0,1-.56-.55V13.16a.5.5,0,0,1,.56-.56h5.95a4.76,4.76,0,0,1,2,.4,5.07,5.07,0,0,1,1.58,1.07,5.2,5.2,0,0,1,1.08,1.59,4.87,4.87,0,0,1,.39,1.94v4a4.4,4.4,0,0,1-1.11,3.06,4.85,4.85,0,0,1-1.43,1A3.84,3.84,0,0,1,38.58,26.53ZM35.05,17.8a1,1,0,0,0-.95-.95H32.83v6.74H34.1a.94.94,0,0,0,.95-.95Zm0,11.07a1,1,0,0,0-.95-.95H32.83v8.21H34.1a.94.94,0,0,0,.95-1Z"/></g></g></svg>